PathFileType	4	(X/Y/Z)	/Users/itak/Documents/Research/Walk-IL/dataset/trc/00075_00006.trc
DataRate	CameraRate	NumFrames	NumMarkers	Units	OrigDataRate	OrigDataStartFrame	OrigNumFrames
100.000000	100.000000	4	53	mm	100.000000	182	729
Frame#	Time	RPSI			LPSI			L3			STRN			T10			C7			CLAV			RBAK			LBAK			LSHO			LUPA			LAEL			LAOL			LWTS			LWPS			LFRA			LIFD			LHPS			LHTS			RSHO			RUPA			RAEL			RAOL			RWTS			RWPS			RFRA			RIFD			RHTS			RHPS			RBHD			LFHD			RFHD			LBHD			LHIP			RHIP			RASI			LASI			LKNE			LTHI			LANK			LTIP			LTOE			LMT1			LMT5			LHEE			RKNE			RTHI			RANK			RTIP			RTOE			RMT1			RMT5			RHEE			
		X1	Y1	Z1	X2	Y2	Z2	X3	Y3	Z3	X4	Y4	Z4	X5	Y5	Z5	X6	Y6	Z6	X7	Y7	Z7	X8	Y8	Z8	X9	Y9	Z9	X10	Y10	Z10	X11	Y11	Z11	X12	Y12	Z12	X13	Y13	Z13	X14	Y14	Z14	X15	Y15	Z15	X16	Y16	Z16	X17	Y17	Z17	X18	Y18	Z18	X19	Y19	Z19	X20	Y20	Z20	X21	Y21	Z21	X22	Y22	Z22	X23	Y23	Z23	X24	Y24	Z24	X25	Y25	Z25	X26	Y26	Z26	X27	Y27	Z27	X28	Y28	Z28	X29	Y29	Z29	X30	Y30	Z30	X31	Y31	Z31	X32	Y32	Z32	X33	Y33	Z33	X34	Y34	Z34	X35	Y35	Z35	X36	Y36	Z36	X37	Y37	Z37	X38	Y38	Z38	X39	Y39	Z39	X40	Y40	Z40	X41	Y41	Z41	X42	Y42	Z42	X43	Y43	Z43	X44	Y44	Z44	X45	Y45	Z45	X46	Y46	Z46	X47	Y47	Z47	X48	Y48	Z48	X49	Y49	Z49	X50	Y50	Z50	X51	Y51	Z51	X52	Y52	Z52	X53	Y53	Z53	

183	1.82	-194.9722442626953	1020.548095703125	893.8914794921875	-285.1168518066406	1009.854431152344	1043.261474609375	-243.9819946289062	1076.478271484375	965.868896484375	-457.6766052246094	1278.455078125	825.6499633789062	-230.6171875	1209.665161132812	972.1859130859375	-277.299560546875	1477.106201171875	943.22998046875	-430.213134765625	1392.384765625	844.7453002929688	-188.1419219970703	1336.801147460938	913.7523193359375	-309.5816955566406	1440.459228515625	1037.801147460938	-433.3707885742188	1448.254760742188	1049.304809570312	-444.7402648925781	1330.131591796875	1136.527221679688	-453.0337219238281	1121.239135742188	1176.391967773438	-363.2611389160156	1104.642456054688	1119.346557617188	-498.3848571777344	866.39404296875	1124.178100585938	-462.4622497558594	869.9401245117188	1199.966552734375	-466.3750305175781	1011.8701171875	1193.180419921875	-523.7061767578125	684.265380859375	1147.065795898438	-486.9676208496094	786.2993774414062	1198.592895507812	-515.7662963867188	783.605712890625	1133.409545898438	-235.5425109863281	1444.458374023438	763.4105834960938	-188.7461547851562	1378.184814453125	718.8880615234375	-129.9963226318359	1121.3935546875	706.8641357421875	-205.0067596435547	1091.352783203125	766.4961547851562	-261.8916931152344	873.0753173828125	624.1295166015625	-176.5598907470703	858.9542846679688	635.6962280273438	-132.4039764404297	1040.305908203125	687.5831298828125	-257.5147399902344	683.3125	613.1489868164062	-275.0149841308594	765.4466552734375	611.5155639648438	-198.1049041748047	767.600341796875	614.9833374023438	-409.3711547851562	1675.699096679688	942.2244262695312	-356.88916015625	1666.916259765625	732.2897338867188	-475.5979309082031	1677.606811523438	775.8856201171875	-284.2682189941406	1655.6337890625	886.86279296875	-426.36572265625	956.3765869140625	1057.932495117188	-200.3440551757812	943.4035034179688	795.2654418945312	-315.0162658691406	962.6213989257812	739.3107299804688	-481.8691101074219	966.70947265625	948.954345703125	-623.9992065429688	536.3108520507812	899.37890625	-575.14501953125	669.0043334960938	970.608154296875	-426.6921691894531	181.2517395019531	1188.008911132812	-527.779052734375	351.30029296875	1061.0947265625	-561.27587890625	92.49103546142578	1070.705932617188	-494.6948547363281	107.0242919921875	1055.493774414062	-516.0278930664062	125.8333587646484	1163.797729492188	-341.3404846191406	201.53759765625	1158.052124023438	-341.8276062011719	500.0113830566406	847.923583984375	-288.7872009277344	758.3500366210938	770.0930786132812	-340.1141052246094	41.37685394287109	990.0248413085938	-345.5036315917969	377.0972595214844	880.692138671875	-545.9164428710938	44.27840423583984	913.7841186523438	-514.05224609375	48.80206298828125	976.1612548828125	-438.8204956054688	49.47654724121094	913.6361083984375	-331.3927307128906	46.41749572753906	1061.785888671875	
184	1.83	-201.3544769287109	1020.396789550781	893.0721435546875	-295.5114440917969	1009.94091796875	1040.087646484375	-251.6310424804688	1076.666625976562	963.50048828125	-462.6412353515625	1278.168579101562	818.8121337890625	-237.8230133056641	1209.51953125	969.2854614257812	-284.2429809570312	1477.019653320312	938.8367919921875	-435.6440124511719	1392.104248046875	838.3782958984375	-194.5106811523438	1336.753662109375	910.975830078125	-317.7429809570312	1440.474731445312	1032.92822265625	-441.6288452148438	1448.19580078125	1042.873046875	-453.2844848632812	1330.341796875	1130.300537109375	-460.381591796875	1121.506469726562	1170.6650390625	-369.9527282714844	1105.478149414062	1114.511474609375	-502.799560546875	866.06640625	1119.083251953125	-467.994140625	870.3143310546875	1195.40185546875	-472.9411926269531	1012.1279296875	1187.762817382812	-525.720703125	683.4364624023438	1142.616577148438	-491.3935241699219	786.3848266601562	1194.184814453125	-519.2249145507812	782.8460693359375	1128.70166015625	-239.8429107666016	1444.1474609375	759.7644653320312	-192.3474578857422	1377.853149414062	715.9782104492188	-133.4408264160156	1120.829467773438	704.7495727539062	-209.3034057617188	1090.97265625	763.3469848632812	-266.7718200683594	873.9126586914062	619.7946166992188	-181.7213287353516	858.8629760742188	631.9817504882812	-136.1599273681641	1039.62158203125	685.1350708007812	-264.2250671386719	684.1910400390625	607.98095703125	-280.8899536132812	766.5086669921875	606.6119384765625	-203.9959716796875	767.86328125	610.6305541992188	-416.0176696777344	1675.416381835938	936.6723022460938	-360.9994812011719	1667.057006835938	727.3778686523438	-480.1807250976562	1677.80224609375	769.531494140625	-290.2319641113281	1655.308471679688	882.8079223632812	-437.1884765625	956.6758422851562	1050.93310546875	-204.2455444335938	943.2478637695312	794.4799194335938	-317.1478576660156	962.4461669921875	735.16943359375	-489.5018005371094	966.9032592773438	940.3251342773438	-633.09326171875	539.7914428710938	882.2689208984375	-585.6627197265625	671.4163208007812	956.029541015625	-459.1047668457031	169.0031280517578	1166.666381835938	-549.2789306640625	346.6622009277344	1041.674194335938	-590.4552612304688	89.56846618652344	1039.397705078125	-522.8219604492188	102.6039581298828	1028.017456054688	-548.7565307617188	117.5140838623047	1135.905151367188	-371.8024291992188	187.9770660400391	1141.547485351562	-342.5860900878906	499.6861877441406	846.6853637695312	-290.7705078125	757.9507446289062	768.0565185546875	-340.1571655273438	41.43266296386719	990.0872192382812	-346.0856628417969	376.9440612792969	879.937744140625	-545.908447265625	44.23973846435547	913.7467651367188	-514.0845336914062	48.80532073974609	976.1365356445312	-438.8216857910156	49.42382431030273	913.5953369140625	-331.3476867675781	46.53540420532227	1061.89306640625	
185	1.84	-207.8228912353516	1020.164794921875	892.1629028320312	-305.8347778320312	1009.980773925781	1036.764282226562	-259.2222290039062	1076.7802734375	961.1525268554688	-467.4831237792969	1277.762817382812	811.9163208007812	-245.1026458740234	1209.295654296875	966.2996215820312	-291.1580505371094	1476.84619140625	934.3519287109375	-440.9877014160156	1391.704223632812	831.9307250976562	-200.8789978027344	1336.630004882812	908.1334228515625	-325.8818054199219	1440.405883789062	1027.947021484375	-449.8211059570312	1448.058349609375	1036.322143554688	-461.8095092773438	1330.488647460938	1123.958618164062	-467.7775573730469	1121.69287109375	1164.859497070312	-376.7243957519531	1106.223510742188	1109.6142578125	-507.4438171386719	865.7402954101562	1113.869140625	-473.7611083984375	870.621826171875	1190.679809570312	-479.6322937011719	1012.327514648438	1182.246826171875	-528.0481567382812	682.6085205078125	1137.96826171875	-496.0995178222656	786.4532470703125	1189.593872070312	-523.014892578125	782.1527099609375	1123.823974609375	-244.09716796875	1443.745239257812	756.0693359375	-195.9017791748047	1377.4375	713.033935546875	-136.8566589355469	1120.175415039062	702.6050415039062	-213.5354766845703	1090.505493164062	760.1956787109375	-271.5625610351562	874.6792602539062	615.4287719726562	-186.7483062744141	858.7107543945312	628.2445068359375	-139.8541564941406	1038.854736328125	682.6654663085938	-270.8451538085938	685.0253295898438	602.721435546875	-286.6794738769531	767.5283813476562	601.6397705078125	-209.8013305664062	768.066650390625	606.228515625	-422.6322937011719	1675.02587890625	931.0160522460938	-365.1188659667969	1667.064575195312	722.3837280273438	-484.7453002929688	1677.86083984375	763.0943603515625	-296.193603515625	1654.870361328125	878.6503295898438	-447.8617248535156	956.884521484375	1043.80322265625	-208.2878875732422	943.038330078125	793.6570434570312	-319.3368225097656	962.2035522460938	731.0301513671875	-496.9426879882812	966.9992065429688	931.6525268554688	-641.3036499023438	542.906494140625	865.6175537109375	-595.4100341796875	673.5195922851562	941.7507934570312	-490.9212951660156	156.5922241210938	1143.164672851562	-570.05517578125	341.72314453125	1021.352905273438	-618.0272216796875	86.79830932617188	1006.211303710938	-549.6179809570312	98.34749603271484	998.7015380859375	-580.4049682617188	109.2072143554688	1105.8134765625	-402.0058898925781	174.1900939941406	1123.033569335938	-343.6260375976562	499.3863220214844	845.31640625	-293.0469665527344	757.548583984375	765.853271484375	-340.1950073242188	41.48479461669922	990.129638671875	-346.8788452148438	376.7653198242188	879.0361938476562	-545.8878173828125	44.2076416015625	913.7086791992188	-514.1078491210938	48.8292236328125	976.115966796875	-438.8234252929688	49.36625671386719	913.5484008789062	-331.2966613769531	46.66806411743164	1061.963500976562	
186	1.85	-214.3680114746094	1019.855773925781	891.09619140625	-316.0405883789062	1009.946960449219	1033.256469726562	-266.7696533203125	1076.808227539062	958.7789916992188	-472.219482421875	1277.237182617188	804.9691162109375	-252.4767303466797	1209.005737304688	963.1830444335938	-298.03466796875	1476.580810546875	929.7803344726562	-446.2477722167969	1391.187133789062	825.4042358398438	-207.2553558349609	1336.42236328125	905.2161865234375	-333.9992370605469	1440.242431640625	1022.858947753906	-457.9509582519531	1447.831665039062	1029.652099609375	-470.3236999511719	1330.557495117188	1117.502563476562	-475.2334594726562	1121.783325195312	1158.968872070312	-383.5728149414062	1106.86474609375	1104.655151367188	-512.338623046875	865.3934326171875	1108.562133789062	-479.7443237304688	870.8408813476562	1185.802856445312	-486.4530334472656	1012.454284667969	1176.642578125	-530.7283325195312	681.765380859375	1133.115234375	-501.0783386230469	786.4741821289062	1184.825927734375	-527.1392211914062	781.5038452148438	1118.781005859375	-248.3106689453125	1443.248779296875	752.3238525390625	-199.4156799316406	1376.938232421875	710.0482788085938	-140.2628173828125	1119.428100585938	700.4203491210938	-217.7224426269531	1089.953369140625	757.0213012695312	-276.2648315429688	875.3738403320312	611.0078735351562	-191.6354217529297	858.4962158203125	624.49462890625	-143.4981842041016	1038.001098632812	680.1725463867188	-277.3757019042969	685.811279296875	597.388916015625	-292.3818969726562	768.4963989257812	596.5895385742188	-215.5191497802734	768.2052612304688	601.7949829101562	-429.2209167480469	1674.521362304688	925.2510375976562	-369.2394714355469	1666.934448242188	717.3041381835938	-489.2934875488281	1677.77294921875	756.5651245117188	-302.1651916503906	1654.320922851562	874.3905639648438	-458.3396301269531	956.9708862304688	1036.563720703125	-212.4811096191406	942.7774658203125	792.7153930664062	-321.6477355957031	961.8803100585938	726.8825073242188	-504.2047729492188	966.9783325195312	922.9912719726562	-648.6720581054688	545.619873046875	849.5043334960938	-604.3724365234375	675.24755859375	927.8745727539062	-522.0732421875	144.2393341064453	1117.572265625	-590.0573120117188	336.6289978027344	1000.230041503906	-643.9080810546875	84.35280609130859	971.341796875	-574.9815673828125	94.37189483642578	967.7654418945312	-610.87548828125	101.1311645507812	1073.658569335938	-431.9059753417969	160.3425903320312	1102.572387695312	-344.9439697265625	499.0955810546875	843.775634765625	-295.6542358398438	757.1359252929688	763.4457397460938	-340.2347106933594	41.52824020385742	990.150634765625	-347.8827819824219	376.5521850585938	877.969482421875	-545.8510131835938	44.18926620483398	913.6640625	-514.1080932617188	48.88269805908203	976.0946655273438	-438.8187866210938	49.30316543579102	913.4924926757812	-331.2496337890625	46.81940841674805	1061.999389648438	
